HIERARCHY
ROOT Hips
{
	OFFSET 0.000000 0.000000 0.000000
	CHANNELS 6 Xposition Yposition Zposition Yrotation Xrotation Zrotation
	JOINT Chest
	{
		OFFSET 0.000000 -0.009281 11.569106
		CHANNELS 3 Yrotation Xrotation Zrotation
		JOINT Chest2
		{
			OFFSET -0.000000 0.016865 9.269641
			CHANNELS 3 Yrotation Xrotation Zrotation
			JOINT Chest3
			{
				OFFSET -0.000000 0.000001 8.374491
				CHANNELS 3 Yrotation Xrotation Zrotation
				JOINT Chest4
				{
					OFFSET -0.000000 0.000001 8.374493
					CHANNELS 3 Yrotation Xrotation Zrotation
					JOINT Neck
					{
						OFFSET -0.000000 0.000002 12.152554
						CHANNELS 3 Yrotation Xrotation Zrotation
						JOINT Head
						{
							OFFSET -0.000000 0.040101 7.802319
							CHANNELS 3 Yrotation Xrotation Zrotation
							End Site
							{
								OFFSET -0.000000 0.020947 14.853096
							}
						}
					}
					JOINT RightCollar
					{
						OFFSET 2.894404 0.000001 6.791374
						CHANNELS 3 Yrotation Xrotation Zrotation
						JOINT RightShoulder
						{
							OFFSET 13.574684 0.000001 0.000000
							CHANNELS 3 Yrotation Xrotation Zrotation
							JOINT RightElbow
							{
								OFFSET 23.923903 0.000002 0.000000
								CHANNELS 3 Yrotation Xrotation Zrotation
								JOINT RightWrist
								{
									OFFSET 19.846718 0.012767 0.000000
									CHANNELS 3 Yrotation Xrotation Zrotation
									End Site
									{
										OFFSET 14.973145 0.000001 0.000000
									}
								}
							}
						}
					}
					JOINT LeftCollar
					{
						OFFSET -2.894404 0.000001 6.791374
						CHANNELS 3 Yrotation Xrotation Zrotation
						JOINT LeftShoulder
						{
							OFFSET -13.574684 -0.000001 0.000000
							CHANNELS 3 Yrotation Xrotation Zrotation
							JOINT LeftElbow
							{
								OFFSET -23.923903 -0.000002 0.000000
								CHANNELS 3 Yrotation Xrotation Zrotation
								JOINT LeftWrist
								{
									OFFSET -19.846718 0.012763 0.000000
									CHANNELS 3 Yrotation Xrotation Zrotation
									End Site
									{
										OFFSET -14.973145 -0.000001 0.000000
									}
								}
							}
						}
					}
				}
			}
		}
	}
	JOINT RightHip
	{
		OFFSET 9.469263 0.004643 0.045487
		CHANNELS 3 Yrotation Xrotation Zrotation
		JOINT RightKnee
		{
			OFFSET 0.000000 0.002661 -40.478676
			CHANNELS 3 Yrotation Xrotation Zrotation
			JOINT RightAnkle
			{
				OFFSET 0.000000 0.049106 -35.224068
				CHANNELS 3 Yrotation Xrotation Zrotation
				JOINT RightToe
				{
					OFFSET -0.000001 12.539529 -6.151390
					CHANNELS 3 Yrotation Xrotation Zrotation
					End Site
					{
						OFFSET -0.000001 5.044994 -1.291870
					}
				}
			}
		}
	}
	JOINT LeftHip
	{
		OFFSET -9.469263 0.004641 0.045487
		CHANNELS 3 Yrotation Xrotation Zrotation
		JOINT LeftKnee
		{
			OFFSET 0.000000 0.002661 -40.478676
			CHANNELS 3 Yrotation Xrotation Zrotation
			JOINT LeftAnkle
			{
				OFFSET 0.000000 0.049106 -35.224068
				CHANNELS 3 Yrotation Xrotation Zrotation
				JOINT LeftToe
				{
					OFFSET -0.000001 12.539529 -6.151390
					CHANNELS 3 Yrotation Xrotation Zrotation
					End Site
					{
						OFFSET -0.000001 5.044994 -1.291870
					}
				}
			}
		}
	}
}
MOTION
Frames: 14
Frame Time: 0.016667
10.921058 5.707975 82.977592 -4.051053 -1.428764 -109.207683 -1.491313 -5.644341 0.888548 -0.649524 -2.511680 0.363818 -0.649524 -2.511680 0.363816 -0.485569 -1.884151 0.270149 1.758969 -25.144264 -1.295575 2.837348 -10.501881 -1.897220 9.883130 -0.651259 -4.352892 69.434972 36.688303 22.640841 0.306046 19.913451 14.970931 -68.948608 15.482733 11.987387 -9.222975 -3.124693 -4.674136 -61.892155 36.156505 -26.887714 -8.810708 31.838978 -19.846875 53.977995 11.486140 -12.315579 -0.318510 -5.618511 -1.814505 2.262948 -3.659424 -6.860328 -1.488146 4.989993 1.131134 0.018250 -0.029420 0.000791 -0.123304 -6.736389 1.912614 0.206170 -2.120196 0.368483 0.153725 4.600630 2.034362 -0.071535 0.005548 0.004304 
11.015649 5.674371 82.974205 -4.084965 -1.444514 -109.248726 -1.475372 -5.544106 0.889787 -0.642615 -2.467828 0.365652 -0.642615 -2.467827 0.365655 -0.480410 -1.851257 0.271603 1.753495 -25.098114 -1.347760 2.814668 -10.415568 -1.991185 9.896541 -0.679911 -4.333134 69.519530 36.333062 23.303245 1.528235 21.736747 15.844652 -68.889862 15.643037 10.855339 -9.199515 -3.128061 -4.728348 -61.796082 35.960420 -27.192301 -9.590243 32.466006 -20.555922 53.335725 11.933173 -10.485790 -0.323945 -5.726210 -1.820976 2.275619 -3.660967 -6.804838 -1.502215 5.060449 1.119134 0.025248 -0.024330 0.001685 -0.131139 -6.841957 1.870439 0.213694 -2.146040 0.427929 0.162057 4.681692 2.060124 -0.067893 0.008666 0.003518 
11.109441 5.640535 82.970024 -4.124597 -1.462301 -109.282405 -1.450591 -5.441160 0.877936 -0.631812 -2.422037 0.362051 -0.631812 -2.422037 0.362052 -0.472354 -1.816905 0.268995 1.728367 -25.055028 -1.389038 2.759404 -10.335134 -2.070440 9.911582 -0.648988 -4.291103 69.451406 35.984397 23.873815 2.888028 23.630214 16.847365 -68.876140 15.880900 9.589279 -9.171941 -3.163028 -4.763110 -61.682503 35.792373 -27.509992 -10.451201 33.216224 -21.341899 52.692792 12.464011 -8.526801 -0.326214 -5.836126 -1.825209 2.285325 -3.671508 -6.754583 -1.514853 5.133940 1.100761 0.030599 -0.018488 0.001956 -0.137248 -6.957109 1.838400 0.224068 -2.161079 0.477745 0.165547 4.755383 2.085055 -0.064221 0.011274 0.003368 
11.204484 5.605537 82.965088 -4.163741 -1.480547 -109.308647 -1.425848 -5.350361 0.875152 -0.621252 -2.381022 0.361857 -0.621253 -2.381023 0.361861 -0.464462 -1.786138 0.268932 1.706521 -25.004588 -1.433021 2.709235 -10.241085 -2.153680 9.911108 -0.579134 -4.256492 69.328886 35.693568 24.448701 4.320335 25.522441 17.869283 -68.802476 16.121465 8.272117 -9.117287 -3.163348 -4.835507 -61.547750 35.639992 -27.842008 -11.440073 34.111331 -22.189417 52.076835 13.085930 -6.478385 -0.325773 -5.948648 -1.828840 2.290522 -3.679499 -6.706853 -1.523422 5.207534 1.081913 0.034186 -0.014171 0.002222 -0.139721 -7.077541 1.831567 0.231645 -2.165445 0.511889 0.167739 4.827542 2.079722 -0.059981 0.010501 0.003227 
11.300883 5.567074 82.959969 -4.197706 -1.499476 -109.326077 -1.407432 -5.259244 0.879127 -0.613637 -2.339912 0.364880 -0.613636 -2.339912 0.364882 -0.458766 -1.755303 0.271272 1.697996 -24.958314 -1.482125 2.681653 -10.154731 -2.242982 9.887388 -0.507027 -4.253862 69.260270 35.420278 25.076490 5.705708 27.319310 18.855369 -68.675312 16.305330 6.997991 -9.053065 -3.089954 -4.903063 -61.325694 35.466205 -28.127052 -12.530347 35.007547 -23.045999 51.591188 13.727550 -4.490832 -0.313311 -6.059655 -1.835049 2.283431 -3.685966 -6.656910 -1.527294 5.280573 1.051106 0.036003 -0.009405 0.002365 -0.135685 -7.197523 1.834969 0.235849 -2.162765 0.535424 0.168506 4.898127 2.076937 -0.055212 0.008758 0.004305 
11.400093 5.530447 82.955276 -4.229094 -1.518138 -109.338809 -1.387297 -5.162601 0.877829 -0.604164 -2.296677 0.365250 -0.604164 -2.296677 0.365252 -0.451690 -1.722871 0.271629 1.686291 -24.919836 -1.528629 2.649033 -10.082904 -2.328541 9.851797 -0.438773 -4.217041 69.186401 35.259615 25.700002 7.066191 28.874645 19.829871 -68.543721 16.532283 5.833843 -8.998857 -3.004994 -4.943854 -61.098241 35.294074 -28.421302 -13.525732 35.747807 -23.830911 51.117252 14.358840 -2.682960 -0.305789 -6.168777 -1.859940 2.282710 -3.696595 -6.594254 -1.535815 5.356119 1.020973 0.040414 -0.004006 0.001345 -0.130471 -7.315588 1.841975 0.240958 -2.160474 0.563276 0.166120 4.969916 2.039241 -0.050333 0.007481 0.003956 
11.501106 5.495580 82.951134 -4.263432 -1.534430 -109.343699 -1.367475 -5.062556 0.867949 -0.595478 -2.252340 0.361710 -0.595478 -2.252340 0.361712 -0.445218 -1.689611 0.269055 1.671853 -24.884939 -1.569894 2.612784 -10.017827 -2.405451 9.816255 -0.381631 -4.166130 69.110265 35.160564 26.314035 8.383975 30.211631 20.817334 -68.437546 16.775754 4.737712 -8.964424 -2.933925 -4.965259 -60.838428 35.168132 -28.696353 -14.457316 36.305109 -24.610567 50.749211 15.063808 -1.002259 -0.308798 -6.281921 -1.897627 2.293419 -3.706692 -6.530777 -1.550126 5.431075 1.006106 0.045840 0.002254 -0.000253 -0.136415 -7.438985 1.848305 0.254023 -2.151211 0.596433 0.160595 5.035718 2.012891 -0.044014 0.009136 0.004086 
11.604602 5.464971 82.947128 -4.304156 -1.555444 -109.350215 -1.355922 -4.964771 0.860704 -0.590450 -2.209090 0.359081 -0.590450 -2.209090 0.359081 -0.441485 -1.657168 0.267146 1.661197 -24.845716 -1.607526 2.584103 -9.944753 -2.474925 9.813349 -0.332317 -4.112966 69.013427 35.082338 26.943747 9.664187 31.425369 21.789830 -68.395076 17.062084 3.699304 -8.922280 -2.880582 -5.010874 -60.610955 35.102880 -28.999057 -15.365620 36.805704 -25.460514 50.594152 15.910786 0.603785 -0.308528 -6.402696 -1.919113 2.298112 -3.717002 -6.485684 -1.559253 5.505476 0.985629 0.050834 0.008318 -0.001674 -0.142490 -7.571765 1.848435 0.267335 -2.140143 0.642743 0.155518 5.102695 1.991278 -0.038406 0.010066 0.004454 
11.708036 5.434369 82.942123 -4.341509 -1.578890 -109.362366 -1.342746 -4.868097 0.856758 -0.585602 -2.166142 0.357975 -0.585602 -2.166141 0.357970 -0.437880 -1.624952 0.266370 1.646800 -24.799135 -1.641769 2.549418 -9.858092 -2.539166 9.806623 -0.302947 -4.067337 68.951723 35.082102 27.642037 10.877981 32.474968 22.695149 -68.443338 17.377321 2.705481 -8.896630 -2.863653 -5.089535 -60.414061 35.165526 -29.370302 -16.377113 37.318794 -26.357125 50.680492 16.745553 2.019932 -0.299578 -6.521292 -1.916360 2.290815 -3.723820 -6.453389 -1.564175 5.577733 0.960805 0.056673 0.012392 -0.000883 -0.144548 -7.702228 1.848859 0.275234 -2.131190 0.682256 0.153788 5.174542 1.981310 -0.032606 0.008898 0.005121 
11.809093 5.403786 82.936386 -4.376097 -1.602500 -109.375105 -1.328233 -4.777183 0.863483 -0.579995 -2.125685 0.362254 -0.579995 -2.125685 0.362252 -0.433686 -1.594611 0.269641 1.635917 -24.741751 -1.683018 2.519125 -9.751358 -2.615019 9.781345 -0.208361 -4.026555 68.868715 35.070709 28.336968 12.001742 33.475058 23.529179 -68.473015 17.676483 1.785927 -8.883271 -2.774759 -5.197298 -60.197906 35.285222 -29.717576 -17.415292 37.801904 -27.173136 50.761812 17.322268 3.158043 -0.286828 -6.637885 -1.906440 2.280705 -3.725680 -6.427655 -1.570574 5.646760 0.938366 0.062574 0.014679 0.000287 -0.143485 -7.825289 1.843920 0.280310 -2.129066 0.710288 0.154446 5.247445 1.994535 -0.028192 0.008525 0.005455 
11.909167 5.373163 82.930870 -4.406056 -1.618670 -109.371881 -1.310357 -4.688459 0.866914 -0.572787 -2.085818 0.365884 -0.572788 -2.085818 0.365882 -0.428294 -1.564709 0.272427 1.621361 -24.679287 -1.725367 2.481849 -9.635221 -2.693711 9.750140 -0.127903 -3.972037 68.761195 35.050273 29.027928 13.109022 34.439931 24.397668 -68.434677 17.957687 0.863538 -8.861271 -2.640529 -5.269649 -60.023539 35.384082 -30.093643 -18.242339 38.111424 -27.751684 50.620400 17.692606 4.141611 -0.279374 -6.753931 -1.919173 2.273107 -3.717801 -6.400313 -1.578503 5.711747 0.920623 0.067683 0.016229 0.000297 -0.143767 -7.935163 1.824652 0.285443 -2.132822 0.722987 0.149417 5.317609 2.006247 -0.020618 0.010227 0.005155 
12.007689 5.342188 82.926033 -4.432878 -1.634023 -109.348597 -1.285334 -4.598480 0.860249 -0.562518 -2.046046 0.365737 -0.562518 -2.046046 0.365736 -0.420619 -1.534873 0.272392 1.597124 -24.612727 -1.762084 2.428489 -9.511652 -2.764712 9.691078 -0.076178 -3.926980 68.662041 35.062127 29.717781 14.281342 35.342831 25.329618 -68.317369 18.207068 -0.118361 -8.829636 -2.500639 -5.322889 -59.815812 35.428130 -30.444721 -18.925544 38.295996 -28.242622 50.475938 18.151359 5.207419 -0.274906 -6.866183 -1.952148 2.276136 -3.706050 -6.366161 -1.591530 5.761202 0.900896 0.070677 0.027117 -0.000300 -0.141668 -8.039867 1.786851 0.296986 -2.136378 0.732709 0.135369 5.374134 2.016706 -0.012111 0.022784 0.004086 
12.105899 5.314855 82.921982 -4.468592 -1.653094 -109.320702 -1.262912 -4.515708 0.847666 -0.552307 -2.009250 0.361184 -0.552308 -2.009251 0.361188 -0.413001 -1.507266 0.269046 1.567213 -24.536266 -1.786412 2.367796 -9.369853 -2.814882 9.640391 -0.017521 -3.867365 68.554882 35.106646 30.443338 15.492100 36.241657 26.262861 -68.171415 18.469284 -1.142782 -8.786197 -2.416064 -5.408527 -59.599671 35.480773 -30.805683 -19.633906 38.544062 -28.843841 50.426805 18.715319 6.263846 -0.274386 -6.985135 -1.969714 2.287948 -3.706583 -6.346303 -1.605995 5.823228 0.866275 0.072574 0.033721 -0.001148 -0.142255 -8.150728 1.766958 0.310028 -2.139372 0.745282 0.115235 5.434837 1.995974 0.000538 0.026910 0.003420 
12.203409 5.290341 82.917702 -4.500479 -1.675213 -109.294358 -1.242635 -4.441748 0.834123 -0.543154 -1.976419 0.355587 -0.543154 -1.976419 0.355591 -0.406176 -1.482633 0.264907 1.538059 -24.444822 -1.800028 2.310834 -9.200288 -2.845586 9.583782 0.100111 -3.809462 68.470345 35.140005 31.139655 16.767373 37.152124 27.273570 -68.058109 18.805447 -2.131563 -8.736985 -2.357192 -5.529883 -59.383905 35.587727 -31.198853 -20.467034 38.906455 -29.563794 50.377027 19.235529 7.151856 -0.267723 -7.092792 -1.964036 2.291040 -3.719192 -6.338784 -1.613128 5.886267 0.828873 0.073949 0.040881 -0.000878 -0.139635 -8.265286 1.770652 0.321347 -2.127388 0.767400 0.090217 5.486465 1.935632 0.014630 0.030835 0.002691 
